<svg xmlns="http://www.w3.org/2000/svg" data-name="Layer 1" fill="#eeeeee" viewBox="0 0 32 40" x="0px" y="0px">
  <title>Error</title>
  <path
    d="M10.4,14.15l1.16,1.16A1,1,0,1,0,13,13.89l-1.16-1.16L13,11.57a1,1,0,0,0-1.41-1.41L10.4,11.32,9.24,10.16a1,1,0,0,0-1.41,1.41L9,12.73,7.83,13.89a1,1,0,0,0,.7,1.71,1,1,0,0,0,.71-.29Z" />
  <path
    d="M24.17,10.16a1,1,0,0,0-1.41,0L21.6,11.32l-1.16-1.16A1,1,0,1,0,19,11.57l1.16,1.16L19,13.89a1,1,0,0,0,1.41,1.42l1.16-1.16,1.16,1.16a1,1,0,0,0,.71.29,1,1,0,0,0,.7-1.71L23,12.73l1.16-1.16A1,1,0,0,0,24.17,10.16Z" />
  <path
    d="M16,18.73a8.47,8.47,0,0,0-7,3.71,1,1,0,1,0,1.65,1.12,6.47,6.47,0,0,1,10.7,0,1,1,0,0,0,.82.44,1.08,1.08,0,0,0,.57-.17A1,1,0,0,0,23,22.44,8.47,8.47,0,0,0,16,18.73Z" />
  <path d="M16,1A15,15,0,1,0,31,16,15,15,0,0,0,16,1Zm0,28A13,13,0,1,1,29,16,13,13,0,0,1,16,29Z" />
</svg>
